<svg xmlns="http://www.w3.org/2000/svg" width="2308" height="1243" viewBox="0 0 2308 1243" font-family="Helvetica, Arial, sans-serif"><defs><marker id="arr" viewBox="0 0 10 10" refX="8.5" refY="5" markerWidth="7" markerHeight="7" orient="auto-start-reverse"><path d="M0 1 L9 5 L0 9 z" fill="#5b6472"/></marker><marker id="arrB" viewBox="0 0 10 10" refX="8.5" refY="5" markerWidth="7" markerHeight="7" orient="auto-start-reverse"><path d="M0 1 L9 5 L0 9 z" fill="#2563a8"/></marker><marker id="arrP" viewBox="0 0 10 10" refX="8.5" refY="5" markerWidth="7" markerHeight="7" orient="auto-start-reverse"><path d="M0 1 L9 5 L0 9 z" fill="#8a6d1f"/></marker><marker id="arrCi" viewBox="0 0 10 10" refX="8.5" refY="5" markerWidth="7.5" markerHeight="7.5" orient="auto-start-reverse"><path d="M0 1 L9 5 L0 9 z" fill="#5a4596"/></marker></defs><rect x="0" y="0" width="2308" height="1243" fill="#ffffff"/><text x="1154" y="40" font-size="24" font-weight="bold" fill="#0f172a" text-anchor="middle">Finance Portal — System Architecture</text><rect x="40" y="62" width="2228" height="118" rx="10" ry="10" fill="#f5f3ff" stroke="#7c5cc4" stroke-width="1.8" stroke-dasharray="2 0"/><path d="M40 92 L40 72 Q40 62 50 62 L300 62 Q310 62 310 72 L310 92 Z" fill="#7c5cc4"/><text x="56" y="83" font-size="14" font-weight="bold" fill="#ffffff" text-anchor="start">CI/CD Pipeline — GitHub Actions</text><rect x="64" y="108" width="196" height="56" rx="8" ry="8" fill="#ede9fe" stroke="#7c5cc4" stroke-width="1.7"/><text x="104" y="131" font-size="12.5" font-weight="bold" fill="#0f172a" text-anchor="start">GitHub</text><text x="104" y="148" font-size="10" fill="#475569" text-anchor="start">push to main</text><rect x="386" y="108" width="196" height="56" rx="8" ry="8" fill="#ede9fe" stroke="#7c5cc4" stroke-width="1.7"/><text x="426" y="131" font-size="12.5" font-weight="bold" fill="#0f172a" text-anchor="start">GitHub Actions</text><text x="426" y="148" font-size="10" fill="#475569" text-anchor="start">build · test · lint</text><rect x="708" y="102" width="196" height="30" rx="7" fill="#ede9fe" stroke="#7c5cc4" stroke-width="1.6"/><text x="746" y="121" font-size="11.5" font-weight="bold" fill="#0f172a">GHCR · image push</text><rect x="708" y="138" width="196" height="30" rx="7" fill="#ede9fe" stroke="#7c5cc4" stroke-width="1.6"/><text x="746" y="157" font-size="11.5" font-weight="bold" fill="#0f172a">SonarQube · analysis</text><rect x="1030" y="108" width="196" height="56" rx="8" ry="8" fill="#faf5ff" stroke="#7c5cc4" stroke-width="1.7" stroke-dasharray="6 4"/><text x="1070" y="131" font-size="12.5" font-weight="bold" fill="#0f172a" text-anchor="start">VDS Deploy</text><text x="1070" y="148" font-size="10" fill="#475569" text-anchor="start">compose pull + up</text><path d="M260 136 L386 136" fill="none" stroke="#5a4596" stroke-width="1.6" marker-end="url(#arrCi)"/><rect x="299.4" y="128.0" width="47.2" height="14" rx="3" fill="#ffffff" fill-opacity="1"/><text x="323.0" y="138.5" font-size="9.5" fill="#4c3a82" text-anchor="middle">trigger</text><path d="M582 136 L599.5 136.0 Q608 136 608.0 127.5 L608.0 125.5 Q608 117 616.5 117.0 L708 117" fill="none" stroke="#5a4596" stroke-width="1.6" marker-end="url(#arrCi)"/><rect x="626.0" y="109.0" width="64.0" height="14" rx="3" fill="#ffffff" fill-opacity="1"/><text x="658.0" y="119.5" font-size="9.5" fill="#4c3a82" text-anchor="middle">push image</text><path d="M608 136 L608.0 145.3 Q608 153 615.6 153.0 L708 153" fill="none" stroke="#5a4596" stroke-width="1.6" marker-end="url(#arrCi)"/><rect x="642.8" y="145.0" width="30.4" height="14" rx="3" fill="#ffffff" fill-opacity="1"/><text x="658.0" y="155.5" font-size="9.5" fill="#4c3a82" text-anchor="middle">scan</text><path d="M904 117 L921.5 117.0 Q930 117 930.0 125.5 L930.0 127.5 Q930 136 938.5 136.0 L1030 136" fill="none" stroke="#5a4596" stroke-width="1.6" marker-end="url(#arrCi)"/><rect x="939.6" y="128.0" width="80.8" height="14" rx="3" fill="#ffffff" fill-opacity="1"/><text x="980.0" y="138.5" font-size="9.5" fill="#4c3a82" text-anchor="middle">pull &amp; deploy</text><path d="M904 153 L930 153" fill="none" stroke="#5a4596" stroke-width="1.6" marker-end="url(#arrCi)"/><text x="1154" y="194" font-size="10.5" font-style="italic" fill="#7c5cc4" text-anchor="middle">images published to GHCR are pulled by Docker Compose on the deploy host</text><rect x="507.4" y="238" width="1761" height="847" rx="12" ry="12" fill="#fbfdff" stroke="#94a3b8" stroke-width="1.8"/><path d="M507.4 272 L507.4 248 Q507.4 238 517.4 238 L827.4 238 Q837.4 238 837.4 248 L837.4 272 Z" fill="#2496ED"/><text x="543.4" y="261" font-size="14" font-weight="bold" fill="#ffffff" text-anchor="start">Docker Containers (finance-network)</text><path d="M320 505 L490.4 504.6 Q502.4 504.6 514.4 504.6 L535.4 504.6" fill="none" stroke="#5b6472" stroke-width="1.6" marker-end="url(#arr)"/><path d="M901.5999999999999 662.3333333333334 L514.4 662.3 Q502.4 662.3333333333334 490.4 662.3 L320 662" fill="none" stroke="#2563a8" stroke-width="1.6" marker-end="url(#arrB)"/><path d="M720.4 495.40000000000003 L916.5999999999999 495.4" fill="none" stroke="#5b6472" stroke-width="1.6" marker-end="url(#arr)"/><path d="M720.4 513.8 L731.4 513.8 Q740.4 513.8 740.4 522.8 L740.4 685.0 Q740.4 697 752.4 697.0 L901.5999999999999 697" fill="none" stroke="#5b6472" stroke-width="1.6" marker-end="url(#arr)"/><path d="M720.4 532.2 L725.9 532.2 Q730.4 532.2 730.4 536.7 L730.4 829.0 Q730.4 841 742.4 841.0 L901.5999999999999 841" fill="none" stroke="#5b6472" stroke-width="1.6" marker-end="url(#arr)"/><path d="M720.4 477 L725.9 477.0 Q730.4 477 730.4 472.5 L730.4 449.4 Q730.4 437.4 742.4 437.4 L1367.6857142857143 437.4" fill="none" stroke="#5b6472" stroke-width="1.6" marker-end="url(#arr)"/><path d="M1101.6 495.4 L1333.9 495.4 Q1343.4 495.4 1343.4 485.9 L1343.4 483.7 Q1343.4 474.2 1352.9 474.2 L1367.6857142857143 474.2" fill="none" stroke="#2563a8" stroke-width="1.6" marker-end="url(#arrB)"/><path d="M1116.6 662.3333333333334 L1134.6 662.3 Q1146.6 662.3333333333334 1146.6 650.3 L1146.6 573.7 Q1146.6 561.6666666666667 1158.6 561.7 L1363.4 561.6666666666667" fill="none" stroke="#2563a8" stroke-width="1.6" marker-end="url(#arrB)"/><path d="M1116.6 679.6666666666667 L1363.4 679.6666666666667" fill="none" stroke="#2563a8" stroke-width="1.6" marker-end="url(#arrB)"/><path d="M1116.6 697 L1174.6 697.0 Q1186.6 697 1186.6 709.0 L1186.6 784.0 Q1186.6 796 1198.6 796.0 L1367.4 796" fill="none" stroke="#2563a8" stroke-width="1.6" marker-end="url(#arrB)"/><path d="M1116.6 714.3333333333334 L1154.6 714.3 Q1166.6 714.3333333333334 1166.6 726.3 L1166.6 898.3 Q1166.6 910.3333333333334 1178.6 910.3 L1366.7333333333333 910.3333333333334" fill="none" stroke="#2563a8" stroke-width="1.6" marker-end="url(#arrB)"/><path d="M1116.6 645 L1122.1 645.0 Q1126.6 645 1126.6 640.5 L1126.6 467.8 Q1126.6 455.8 1138.6 455.8 L1367.6857142857143 455.8" fill="none" stroke="#2563a8" stroke-width="1.6" marker-end="url(#arrB)"/><path d="M1116.6 853 L1176.1 853.0 Q1176.6 853 1176.6 852.5 L1176.6 852.5 Q1176.6 852 1177.0 852.0 L1348.9 852.0 Q1353.4 852 1353.4 847.5 L1353.4 846.5 Q1353.4 842 1357.9 842.0 L1367.4 842" fill="none" stroke="#2563a8" stroke-width="1.6" marker-end="url(#arrB)"/><path d="M1116.6 841 L1333.5 841.0 Q1343.4 841 1343.4 831.1 L1343.4 828.9 Q1343.4 819 1353.3 819.0 L1367.4 819" fill="none" stroke="#8a6d1f" stroke-width="1.6" marker-end="url(#arrP)"/><path d="M1116.6 829 L1164.6 829.0 Q1176.6 829 1176.6 817.0 L1176.6 728.3 Q1176.6 716.3333333333334 1188.6 716.3 L1363.4 716.3333333333334" fill="none" stroke="#2563a8" stroke-width="1.6" marker-end="url(#arrB)"/><path d="M1116.6 817 L1144.6 817.0 Q1156.6 817 1156.6 805.0 L1156.6 604.3 Q1156.6 592.3333333333333 1168.6 592.3 L1363.4 592.3333333333333" fill="none" stroke="#2563a8" stroke-width="1.6" marker-end="url(#arrB)"/><path d="M1116.6 865 L1127.6 865.0 Q1136.6 865 1136.6 874.0 L1136.6 926.3 Q1136.6 938.3333333333334 1148.6 938.3 L1342.2 938.3 Q1343.4 938.3333333333334 1343.4 937.1 L1343.4 936.9 Q1343.4 935.6666666666666 1344.6 935.7 L1366.7333333333333 935.6666666666666" fill="none" stroke="#2563a8" stroke-width="1.6" marker-end="url(#arrB)"/><path d="M1116.6 877 L1122.1 877.0 Q1126.6 877 1126.6 881.5 L1126.6 1007.0 Q1126.6 1019 1138.6 1019.0 L1363.4 1019" fill="none" stroke="#5b6472" stroke-width="1.6" marker-end="url(#arr)"/><path d="M1116.6 805 L1127.6 805.0 Q1136.6 805 1136.6 796.0 L1136.6 535.4 Q1136.6 523.4 1148.6 523.4 L1341.4 523.4 Q1353.4 523.4 1353.4 511.4 L1353.4 499.0 Q1353.4 492.6 1359.8 492.6 L1367.6857142857143 492.6" fill="none" stroke="#2563a8" stroke-width="1.6" marker-end="url(#arrB)"/><path d="M1542.4 803.6666666666667 L1714.4 803.7 Q1726.4 803.6666666666667 1726.4 791.7 L1726.4 592.8 Q1726.4 588.3333333333333 1730.9 588.3 L1736.4 588.3333333333333" fill="none" stroke="#8a6d1f" stroke-width="1.6" marker-end="url(#arrP)"/><path d="M1542.6857142857143 465 L1736.4 465" fill="none" stroke="#2563a8" stroke-width="1.6" marker-end="url(#arrB)"/><path d="M1542.6857142857143 442 L1551.3 442.0 Q1558.4 442 1558.4 434.9 L1558.4 375.0 Q1558.4 363 1570.4 363.0 L1736.4 363" fill="none" stroke="#2563a8" stroke-width="1.6" marker-end="url(#arrB)" marker-start="url(#arrB)"/><path d="M1542.6857142857143 488 L1551.3 488.0 Q1558.4 488 1558.4 495.1 L1558.4 549.7 Q1558.4 561.6666666666667 1570.4 561.7 L1736.4 561.6666666666667" fill="none" stroke="#8a6d1f" stroke-width="1.6" marker-end="url(#arrP)"/><path d="M1548.4 331 L1736.4 331" fill="none" stroke="#5b6472" stroke-width="1.6" marker-end="url(#arr)"/><path d="M1542.4 834.3333333333334 L1751.4 834.3333333333334" fill="none" stroke="#5b6472" stroke-width="1.6" marker-end="url(#arr)"/><path d="M1926.4 834.3333333333334 L2055.4 834.3333333333334" fill="none" stroke="#5b6472" stroke-width="1.6" marker-end="url(#arr)"/><path d="M1541.7333333333336 923 L2023.4 923.0 Q2035.4 923 2035.4 911.0 L2035.4 870.8 Q2035.4 861.8333333333334 2044.4 861.8 L2055.4 861.8333333333334" fill="none" stroke="#5b6472" stroke-width="1.6" marker-end="url(#arr)"/><path d="M1941.4 999 L2033.4 999.0 Q2045.4 999 2045.4 987.0 L2045.4 893.8 Q2045.4 889.3333333333334 2049.9 889.3 L2055.4 889.3333333333334" fill="none" stroke="#5b6472" stroke-width="1.6" marker-end="url(#arr)"/><rect x="105" y="464" width="215" height="82" rx="9" ry="9" fill="#dbeafe" stroke="#3b82f6" stroke-width="1.8"/><text x="145" y="487" font-size="14" font-weight="bold" fill="#0f172a" text-anchor="start">Web Browser</text><text x="212.5" y="506" font-size="10.5" fill="#475569" text-anchor="middle">user · React SPA</text><text x="212.5" y="520" font-size="10.5" fill="#475569" text-anchor="middle">HTTP :80</text><path d="M 120 690
      C 65 690, 65 652, 115 654
      C 95 617, 195 608, 205 634
      C 245 614, 320 624, 290 654
      C 335 654, 335 690, 280 690 Z"
      fill="#f1f5f9" stroke="#64748b" stroke-width="1.8"/><text x="195" y="660" font-size="13" font-weight="bold" fill="#0f172a" text-anchor="middle">External APIs</text><text x="195" y="674" font-size="9.5" fill="#334155" text-anchor="middle">CoinGecko · Binance · Yahoo</text><text x="195" y="686" font-size="9.5" fill="#334155" text-anchor="middle">TEFAS · TCMB/EVDS · İş Yatırım</text><rect x="535.4" y="458.6" width="185" height="92" rx="9" ry="9" fill="#ffedd5" stroke="#ea580c" stroke-width="1.8"/><text x="575.4" y="481.6" font-size="14" font-weight="bold" fill="#0f172a" text-anchor="start">Nginx Gateway</text><text x="627.9" y="500.6" font-size="12" font-weight="bold" fill="#0f172a" text-anchor="middle">Port: 80</text><text x="627.9" y="516.6" font-size="10.5" fill="#475569" text-anchor="middle">reverse proxy</text><text x="627.9" y="530.6" font-size="10.5" fill="#475569" text-anchor="middle">rate-limit zones</text><rect x="916.5999999999999" y="458.4" width="185" height="74" rx="9" ry="9" fill="#dcfce7" stroke="#16a34a" stroke-width="1.8"/><text x="956.5999999999999" y="481.4" font-size="14" font-weight="bold" fill="#0f172a" text-anchor="start">Frontend</text><text x="1009.0999999999999" y="500.4" font-size="12" font-weight="bold" fill="#0f172a" text-anchor="middle">Port: 80</text><text x="1009.0999999999999" y="516.4" font-size="10.5" fill="#475569" text-anchor="middle">static React build</text><rect x="901.5999999999999" y="627.6666666666667" width="215" height="104" rx="9" ry="9" fill="#dcfce7" stroke="#16a34a" stroke-width="1.8"/><text x="941.5999999999999" y="650.6666666666667" font-size="14" font-weight="bold" fill="#0f172a" text-anchor="start">Backend</text><text x="1009.0999999999999" y="669.6666666666667" font-size="12" font-weight="bold" fill="#0f172a" text-anchor="middle">Port: 8080</text><text x="1009.0999999999999" y="685.6666666666667" font-size="10.5" fill="#475569" text-anchor="middle">Spring Boot · multi-module</text><text x="1009.0999999999999" y="699.6666666666667" font-size="10.5" fill="#475569" text-anchor="middle">embedded OTel agent</text><rect x="901.5999999999999" y="793" width="215" height="96" rx="9" ry="9" fill="#dcfce7" stroke="#16a34a" stroke-width="1.8"/><text x="941.5999999999999" y="816" font-size="14" font-weight="bold" fill="#0f172a" text-anchor="start">Notification Backend</text><text x="1009.0999999999999" y="835" font-size="12" font-weight="bold" fill="#0f172a" text-anchor="middle">Port: 8082</text><text x="1009.0999999999999" y="851" font-size="10.5" fill="#475569" text-anchor="middle">Spring Boot microservice</text><text x="1009.0999999999999" y="865" font-size="10.5" fill="#475569" text-anchor="middle">in-app · email · SSE</text><text x="1009.0999999999999" y="879" font-size="10.5" fill="#475569" text-anchor="middle">+ OTel agent</text><rect x="1363.4" y="981" width="185" height="76" rx="9" ry="9" fill="#ede9fe" stroke="#7c3aed" stroke-width="1.8"/><text x="1403.4" y="1004" font-size="14" font-weight="bold" fill="#0f172a" text-anchor="start">PDF Service</text><text x="1455.9" y="1023" font-size="12" font-weight="bold" fill="#0f172a" text-anchor="middle">Port: 8080</text><text x="1455.9" y="1039" font-size="10.5" fill="#475569" text-anchor="middle">Puppeteer / Node</text><rect x="1736.4" y="535" width="200" height="80" rx="9" ry="9" fill="#fef9c3" stroke="#ca8a04" stroke-width="1.8"/><text x="1776.4" y="558" font-size="14" font-weight="bold" fill="#0f172a" text-anchor="start">Mailpit</text><text x="1836.4" y="577" font-size="12" font-weight="bold" fill="#0f172a" text-anchor="middle">Port: 1025 / 8025</text><text x="1836.4" y="593" font-size="10.5" fill="#475569" text-anchor="middle">SMTP mail catcher</text><polygon points="1390.4,531 1486.4,531 1513.4,577 1486.4,623 1390.4,623 1363.4,577" fill="#fee2e2" stroke="#dc2626" stroke-width="1.8"/><text x="1438.4" y="583" font-size="13" font-weight="bold" fill="#0f172a" text-anchor="middle">Redis</text><text x="1438.4" y="598" font-size="10" font-weight="bold" fill="#0f172a" text-anchor="middle">Port: 6379</text><g><path d="M1363.4 657 C 1363.4 637.4, 1538.4 637.4, 1538.4 657 L 1538.4 739 C 1538.4 758.6, 1363.4 758.6, 1363.4 739 Z" fill="#dbeafe" stroke="#3b82f6" stroke-width="1.8"/><path d="M1363.4 657 C 1363.4 676.6, 1538.4 676.6, 1538.4 657" fill="none" stroke="#3b82f6" stroke-width="1.8"/></g><text x="1450.9" y="699" font-size="13" font-weight="bold" fill="#0f172a" text-anchor="middle">Finance DB</text><text x="1450.9" y="714" font-size="10" fill="#1e3a5f" text-anchor="middle">PostgreSQL :5432</text><text x="1450.9" y="727" font-size="10" fill="#1e3a5f" text-anchor="middle">shared schema</text><rect x="1367.4" y="773" width="175" height="92" rx="9" ry="9" fill="#f1f5f9" stroke="#475569" stroke-width="1.8"/><text x="1407.4" y="796" font-size="14" font-weight="bold" fill="#0f172a" text-anchor="start">Kafka</text><text x="1454.9" y="815" font-size="12" font-weight="bold" fill="#0f172a" text-anchor="middle">Port: 9092</text><text x="1454.9" y="831" font-size="10.5" fill="#475569" text-anchor="middle">KRaft (no Zookeeper)</text><rect x="1366.7333333333333" y="885" width="175" height="76" rx="9" ry="9" fill="#ede9fe" stroke="#7c3aed" stroke-width="1.8"/><text x="1406.7333333333333" y="908" font-size="14" font-weight="bold" fill="#0f172a" text-anchor="start">OTel Collector</text><text x="1454.2333333333333" y="927" font-size="12" font-weight="bold" fill="#0f172a" text-anchor="middle">Port: 4317</text><text x="1454.2333333333333" y="943" font-size="10.5" fill="#475569" text-anchor="middle">traces / metrics</text><rect x="1751.4" y="796.3333333333334" width="175" height="76" rx="9" ry="9" fill="#ede9fe" stroke="#7c3aed" stroke-width="1.8"/><text x="1791.4" y="819.3333333333334" font-size="14" font-weight="bold" fill="#0f172a" text-anchor="start">Data Prepper</text><text x="1838.9" y="838.3333333333334" font-size="10.5" fill="#475569" text-anchor="middle">Kafka → OpenSearch</text><g><path d="M2055.4 820.8333333333334 C 2055.4 801.2333333333333, 2240.4 801.2333333333333, 2240.4 820.8333333333334 L 2240.4 902.8333333333334 C 2240.4 922.4333333333334, 2055.4 922.4333333333334, 2055.4 902.8333333333334 Z" fill="#dbeafe" stroke="#3b82f6" stroke-width="1.8"/><path d="M2055.4 820.8333333333334 C 2055.4 840.4333333333334, 2240.4 840.4333333333334, 2240.4 820.8333333333334" fill="none" stroke="#3b82f6" stroke-width="1.8"/></g><text x="2147.9" y="862.8333333333334" font-size="13" font-weight="bold" fill="#0f172a" text-anchor="middle">OpenSearch</text><text x="2147.9" y="877.8333333333334" font-size="10" fill="#1e3a5f" text-anchor="middle">logs + traces</text><text x="2147.9" y="890.8333333333334" font-size="10" fill="#1e3a5f" text-anchor="middle">Port: 9200</text><rect x="1736.4" y="961" width="205" height="76" rx="9" ry="9" fill="#ede9fe" stroke="#7c3aed" stroke-width="1.8"/><text x="1776.4" y="984" font-size="14" font-weight="bold" fill="#0f172a" text-anchor="start">OS Dashboards</text><text x="1838.9" y="1003" font-size="12" font-weight="bold" fill="#0f172a" text-anchor="middle">Port: 5601</text><text x="1838.9" y="1019" font-size="10.5" fill="#475569" text-anchor="middle">OpenSearch · visualize</text><rect x="1367.6857142857143" y="419" width="175" height="92" rx="9" ry="9" fill="#ffedd5" stroke="#ea580c" stroke-width="1.8"/><text x="1407.6857142857143" y="442" font-size="14" font-weight="bold" fill="#0f172a" text-anchor="start">Keycloak</text><text x="1455.1857142857143" y="461" font-size="12" font-weight="bold" fill="#0f172a" text-anchor="middle">Port: 8180</text><text x="1455.1857142857143" y="477" font-size="10.5" fill="#475569" text-anchor="middle">OIDC / OAuth2</text><text x="1455.1857142857143" y="491" font-size="10.5" fill="#475569" text-anchor="middle">realm: finance-realm</text><g><path d="M1736.4 429 C 1736.4 409.4, 1911.4 409.4, 1911.4 429 L 1911.4 501 C 1911.4 520.6, 1736.4 520.6, 1736.4 501 Z" fill="#dbeafe" stroke="#3b82f6" stroke-width="1.8"/><path d="M1736.4 429 C 1736.4 448.6, 1911.4 448.6, 1911.4 429" fill="none" stroke="#3b82f6" stroke-width="1.8"/></g><text x="1823.9" y="471" font-size="13" font-weight="bold" fill="#0f172a" text-anchor="middle">Keycloak DB</text><text x="1823.9" y="486" font-size="10" fill="#1e3a5f" text-anchor="middle">same Postgres :5432</text><text x="1823.9" y="499" font-size="10" fill="#1e3a5f" text-anchor="middle">keycloak_db</text><ellipse cx="1832.4" cy="347" rx="96" ry="48" fill="#f1f5f9" stroke="#64748b" stroke-width="1.8"/><text x="1832.4" y="351" font-size="13" font-weight="bold" fill="#0f172a" text-anchor="middle">OpenLDAP</text><text x="1832.4" y="366" font-size="10" font-weight="bold" fill="#0f172a" text-anchor="middle">Port: 389</text><rect x="1373.4" y="296" width="175" height="70" rx="9" ry="9" fill="#ffedd5" stroke="#ea580c" stroke-width="1.8"/><text x="1413.4" y="319" font-size="14" font-weight="bold" fill="#0f172a" text-anchor="start">phpLDAPadmin</text><text x="1460.9" y="338" font-size="12" font-weight="bold" fill="#0f172a" text-anchor="middle">Port: 8081</text><text x="1460.9" y="354" font-size="10.5" fill="#475569" text-anchor="middle">LDAP admin UI</text><rect x="384.8" y="483.0" width="52.8" height="14" rx="3" fill="#ffffff" fill-opacity="1"/><text x="411.2" y="493.5" font-size="9.5" fill="#334155" text-anchor="middle">HTTP :80</text><rect x="368.0" y="668.0" width="86.4" height="14" rx="3" fill="#ffffff" fill-opacity="1"/><text x="411.2" y="678.5" font-size="9.5" fill="#1e4f86" text-anchor="middle">fetch raw JSON</text><rect x="770.0" y="497.4" width="92.0" height="14" rx="3" fill="#ffffff" fill-opacity="1"/><text x="816.0" y="507.9" font-size="9.5" fill="#334155" text-anchor="middle">serve static UI</text><rect x="770.0" y="699.0" width="92.0" height="14" rx="3" fill="#ffffff" fill-opacity="1"/><text x="816.0" y="709.5" font-size="9.5" fill="#334155" text-anchor="middle">proxy /api/v1/*</text><rect x="750.4" y="843.0" width="131.2" height="14" rx="3" fill="#ffffff" fill-opacity="1"/><text x="816.0" y="853.5" font-size="9.5" fill="#334155" text-anchor="middle">notifications / alerts</text><rect x="974.3" y="419.4" width="69.6" height="14" rx="3" fill="#ffffff" fill-opacity="1"/><text x="1009.1" y="429.9" font-size="9.5" fill="#334155" text-anchor="middle">proxy /auth</text><rect x="1196.6" y="497.4" width="136.8" height="14" rx="3" fill="#ffffff" fill-opacity="1"/><text x="1265.0" y="507.9" font-size="9.5" fill="#1e4f86" text-anchor="middle">login &amp; token (browser)</text><rect x="1235.8" y="563.7" width="58.4" height="14" rx="3" fill="#ffffff" fill-opacity="1"/><text x="1265.0" y="574.2" font-size="9.5" fill="#1e4f86" text-anchor="middle">cache R/W</text><rect x="1224.6" y="681.7" width="80.8" height="14" rx="3" fill="#ffffff" fill-opacity="1"/><text x="1265.0" y="692.2" font-size="9.5" fill="#1e4f86" text-anchor="middle">persist (R/W)</text><rect x="1221.8" y="798.0" width="86.4" height="14" rx="3" fill="#ffffff" fill-opacity="1"/><text x="1265.0" y="808.5" font-size="9.5" fill="#1e4f86" text-anchor="middle">publish events</text><rect x="1230.2" y="912.3" width="69.6" height="14" rx="3" fill="#ffffff" fill-opacity="1"/><text x="1265.0" y="922.8" font-size="9.5" fill="#1e4f86" text-anchor="middle">send traces</text><rect x="1199.4" y="457.8" width="131.2" height="14" rx="3" fill="#ffffff" fill-opacity="1"/><text x="1265.0" y="468.3" font-size="9.5" fill="#1e4f86" text-anchor="middle">validate token / admin</text><rect x="1221.8" y="854.0" width="86.4" height="14" rx="3" fill="#ffffff" fill-opacity="1"/><text x="1265.0" y="864.5" font-size="9.5" fill="#1e4f86" text-anchor="middle">consume events</text><rect x="1199.4" y="823.0" width="131.2" height="14" rx="3" fill="#ffffff" fill-opacity="1"/><text x="1265.0" y="833.5" font-size="9.5" fill="#6b5417" text-anchor="middle">mail dispatch (outbox)</text><rect x="1224.6" y="718.3" width="80.8" height="14" rx="3" fill="#ffffff" fill-opacity="1"/><text x="1265.0" y="728.8" font-size="9.5" fill="#1e4f86" text-anchor="middle">persist (R/W)</text><rect x="1233.0" y="594.3" width="64.0" height="14" rx="3" fill="#ffffff" fill-opacity="1"/><text x="1265.0" y="604.8" font-size="9.5" fill="#1e4f86" text-anchor="middle">rate-limit</text><rect x="1230.2" y="940.3" width="69.6" height="14" rx="3" fill="#ffffff" fill-opacity="1"/><text x="1265.0" y="950.8" font-size="9.5" fill="#1e4f86" text-anchor="middle">send traces</text><rect x="1207.8" y="1021.0" width="114.4" height="14" rx="3" fill="#ffffff" fill-opacity="1"/><text x="1265.0" y="1031.5" font-size="9.5" fill="#334155" text-anchor="middle">render report → PDF</text><rect x="1199.4" y="525.4" width="131.2" height="14" rx="3" fill="#ffffff" fill-opacity="1"/><text x="1265.0" y="535.9" font-size="9.5" fill="#1e4f86" text-anchor="middle">validate / user lookup</text><rect x="1582.4" y="805.7" width="120.0" height="14" rx="3" fill="#ffffff" fill-opacity="1"/><text x="1642.4" y="816.2" font-size="9.5" fill="#6b5417" text-anchor="middle">consume → SMTP :1025</text><rect x="1607.6" y="467.0" width="69.6" height="14" rx="3" fill="#ffffff" fill-opacity="1"/><text x="1642.4" y="477.5" font-size="9.5" fill="#1e4f86" text-anchor="middle">store realm</text><rect x="1596.4" y="365.0" width="92.0" height="14" rx="3" fill="#ffffff" fill-opacity="1"/><text x="1642.4" y="375.5" font-size="9.5" fill="#1e4f86" text-anchor="middle">user federation</text><rect x="1568.4" y="563.7" width="148.0" height="14" rx="3" fill="#ffffff" fill-opacity="1"/><text x="1642.4" y="574.2" font-size="9.5" fill="#6b5417" text-anchor="middle">verification email (SMTP)</text><rect x="1610.4" y="333.0" width="64.0" height="14" rx="3" fill="#ffffff" fill-opacity="1"/><text x="1642.4" y="343.5" font-size="9.5" fill="#334155" text-anchor="middle">admin LDAP</text><rect x="1607.6" y="836.3" width="69.6" height="14" rx="3" fill="#ffffff" fill-opacity="1"/><text x="1642.4" y="846.8" font-size="9.5" fill="#334155" text-anchor="middle">stream logs</text><rect x="1961.4" y="836.3" width="64.0" height="14" rx="3" fill="#ffffff" fill-opacity="1"/><text x="1993.4" y="846.8" font-size="9.5" fill="#334155" text-anchor="middle">index logs</text><rect x="1798.5" y="925.0" width="80.8" height="14" rx="3" fill="#ffffff" fill-opacity="1"/><text x="1838.9" y="935.5" font-size="9.5" fill="#334155" text-anchor="middle">export traces</text><rect x="1975.4" y="1001.0" width="36.0" height="14" rx="3" fill="#ffffff" fill-opacity="1"/><text x="1993.4" y="1011.5" font-size="9.5" fill="#334155" text-anchor="middle">query</text><rect x="527.4" y="1099" width="226" height="100" rx="8" fill="#ffffff" stroke="#cbd5e1" stroke-width="1.4"/><text x="539.4" y="1119" font-size="11.5" font-weight="bold" fill="#0f172a">Legend</text><line x1="541.4" y1="1137" x2="571.4" y2="1137" stroke="#5b6472" stroke-width="2.2"/><text x="579.4" y="1140.5" font-size="10" fill="#334155">HTTP / proxy / internal</text><line x1="541.4" y1="1153" x2="571.4" y2="1153" stroke="#2563a8" stroke-width="2.2"/><text x="579.4" y="1156.5" font-size="10" fill="#334155">backend &amp; service calls</text><line x1="541.4" y1="1169" x2="571.4" y2="1169" stroke="#8a6d1f" stroke-width="2.2"/><text x="579.4" y="1172.5" font-size="10" fill="#334155">email (outbox → Kafka → SMTP)</text><line x1="541.4" y1="1185" x2="571.4" y2="1185" stroke="#5a4596" stroke-width="2.2"/><text x="579.4" y="1188.5" font-size="10" fill="#334155">CI/CD pipeline</text><g transform="translate(74,125) scale(0.9167)"><path d="M12 .297c-6.63 0-12 5.373-12 12 0 5.303 3.438 9.8 8.205 11.385.6.113.82-.258.82-.577 0-.285-.01-1.04-.015-2.04-3.338.724-4.042-1.61-4.042-1.61C4.422 18.07 3.633 17.7 3.633 17.7c-1.087-.744.084-.729.084-.729 1.205.084 1.838 1.236 1.838 1.236 1.07 1.835 2.809 1.305 3.495.998.108-.776.417-1.305.76-1.605-2.665-.3-5.466-1.332-5.466-5.93 0-1.31.465-2.38 1.235-3.22-.135-.303-.54-1.523.105-3.176 0 0 1.005-.322 3.3 1.23.96-.267 1.98-.399 3-.405 1.02.006 2.04.138 3 .405 2.28-1.552 3.285-1.23 3.285-1.23.645 1.653.24 2.873.12 3.176.765.84 1.23 1.91 1.23 3.22 0 4.61-2.805 5.625-5.475 5.92.42.36.81 1.096.81 2.22 0 1.606-.015 2.896-.015 3.286 0 .315.21.69.825.57C20.565 22.092 24 17.592 24 12.297c0-6.627-5.373-12-12-12" fill="#181717"/></g><g transform="translate(396,125) scale(0.9167)"><path d="M10.984 13.836a.5.5 0 0 1-.353-.146l-.745-.743a.5.5 0 1 1 .706-.708l.392.391 1.181-1.18a.5.5 0 0 1 .708.707l-1.535 1.533a.504.504 0 0 1-.354.146zm9.353-.147l1.534-1.532a.5.5 0 0 0-.707-.707l-1.181 1.18-.392-.391a.5.5 0 1 0-.706.708l.746.743a.497.497 0 0 0 .706-.001zM4.527 7.452l2.557-1.585A1 1 0 0 0 7.09 4.17L4.533 2.56A1 1 0 0 0 3 3.406v3.196a1.001 1.001 0 0 0 1.527.85zm2.03-2.436L4 6.602V3.406l2.557 1.61zM24 12.5c0 1.93-1.57 3.5-3.5 3.5a3.503 3.503 0 0 1-3.46-3h-2.08a3.503 3.503 0 0 1-3.46 3 3.502 3.502 0 0 1-3.46-3h-.558c-.972 0-1.85-.399-2.482-1.042V17c0 1.654 1.346 3 3 3h.04c.244-1.693 1.7-3 3.46-3 1.93 0 3.5 1.57 3.5 3.5S13.43 24 11.5 24a3.502 3.502 0 0 1-3.46-3H8c-2.206 0-4-1.794-4-4V9.899A5.008 5.008 0 0 1 0 5c0-2.757 2.243-5 5-5s5 2.243 5 5a5.005 5.005 0 0 1-4.952 4.998A2.482 2.482 0 0 0 7.482 12h.558c.244-1.693 1.7-3 3.46-3a3.502 3.502 0 0 1 3.46 3h2.08a3.503 3.503 0 0 1 3.46-3c1.93 0 3.5 1.57 3.5 3.5zm-15 8c0 1.378 1.122 2.5 2.5 2.5s2.5-1.122 2.5-2.5-1.122-2.5-2.5-2.5S9 19.122 9 20.5zM5 9c2.206 0 4-1.794 4-4S7.206 1 5 1 1 2.794 1 5s1.794 4 4 4zm9 3.5c0-1.378-1.122-2.5-2.5-2.5S9 11.122 9 12.5s1.122 2.5 2.5 2.5 2.5-1.122 2.5-2.5zm9 0c0-1.378-1.122-2.5-2.5-2.5S18 11.122 18 12.5s1.122 2.5 2.5 2.5 2.5-1.122 2.5-2.5zm-13 8a.5.5 0 1 0 1 0 .5.5 0 0 0-1 0zm2 0a.5.5 0 1 0 1 0 .5.5 0 0 0-1 0zm12 0c0 1.93-1.57 3.5-3.5 3.5a3.503 3.503 0 0 1-3.46-3.002c-.007.001-.013.005-.021.005l-.506.017h-.017a.5.5 0 0 1-.016-.999l.506-.017c.018-.002.035.006.052.007A3.503 3.503 0 0 1 20.5 17c1.93 0 3.5 1.57 3.5 3.5zm-1 0c0-1.378-1.122-2.5-2.5-2.5S18 19.122 18 20.5s1.122 2.5 2.5 2.5 2.5-1.122 2.5-2.5z" fill="#2088FF"/></g><g transform="translate(717,106) scale(0.9167)"><path d="M12 .297c-6.63 0-12 5.373-12 12 0 5.303 3.438 9.8 8.205 11.385.6.113.82-.258.82-.577 0-.285-.01-1.04-.015-2.04-3.338.724-4.042-1.61-4.042-1.61C4.422 18.07 3.633 17.7 3.633 17.7c-1.087-.744.084-.729.084-.729 1.205.084 1.838 1.236 1.838 1.236 1.07 1.835 2.809 1.305 3.495.998.108-.776.417-1.305.76-1.605-2.665-.3-5.466-1.332-5.466-5.93 0-1.31.465-2.38 1.235-3.22-.135-.303-.54-1.523.105-3.176 0 0 1.005-.322 3.3 1.23.96-.267 1.98-.399 3-.405 1.02.006 2.04.138 3 .405 2.28-1.552 3.285-1.23 3.285-1.23.645 1.653.24 2.873.12 3.176.765.84 1.23 1.91 1.23 3.22 0 4.61-2.805 5.625-5.475 5.92.42.36.81 1.096.81 2.22 0 1.606-.015 2.896-.015 3.286 0 .315.21.69.825.57C20.565 22.092 24 17.592 24 12.297c0-6.627-5.373-12-12-12" fill="#181717"/></g><g><rect x="717" y="140" width="22" height="22" rx="3.96" ry="3.96" fill="#4E9BCD"/><text x="728" y="151" font-family="Helvetica, Arial, sans-serif" font-size="13.6" font-weight="bold" fill="#ffffff" text-anchor="middle" dominant-baseline="central">S</text></g><g><rect x="1040" y="125" width="22" height="22" rx="3.96" ry="3.96" fill="#7c5cc4"/><text x="1051" y="136" font-family="Helvetica, Arial, sans-serif" font-size="13.6" font-weight="bold" fill="#ffffff" text-anchor="middle" dominant-baseline="central">V</text></g><g transform="translate(515.4,245) scale(0.8333)"><path d="M13.983 11.078h2.119a.186.186 0 00.186-.185V9.006a.186.186 0 00-.186-.186h-2.119a.185.185 0 00-.185.185v1.888c0 .102.083.185.185.185m-2.954-5.43h2.118a.186.186 0 00.186-.186V3.574a.186.186 0 00-.186-.185h-2.118a.185.185 0 00-.185.185v1.888c0 .102.082.185.185.185m0 2.716h2.118a.187.187 0 00.186-.186V6.29a.186.186 0 00-.186-.185h-2.118a.185.185 0 00-.185.185v1.887c0 .102.082.185.185.186m-2.93 0h2.12a.186.186 0 00.184-.186V6.29a.185.185 0 00-.185-.185H8.1a.185.185 0 00-.185.185v1.887c0 .102.083.185.185.186m-2.964 0h2.119a.186.186 0 00.185-.186V6.29a.185.185 0 00-.185-.185H5.136a.186.186 0 00-.186.185v1.887c0 .102.084.185.186.186m5.893 2.715h2.118a.186.186 0 00.186-.185V9.006a.186.186 0 00-.186-.186h-2.118a.185.185 0 00-.185.185v1.888c0 .102.082.185.185.185m-2.93 0h2.12a.185.185 0 00.184-.185V9.006a.185.185 0 00-.184-.186h-2.12a.185.185 0 00-.184.185v1.888c0 .102.083.185.185.185m-2.964 0h2.119a.185.185 0 00.185-.185V9.006a.185.185 0 00-.184-.186h-2.12a.186.186 0 00-.186.186v1.887c0 .102.084.185.186.185m-2.92 0h2.12a.185.185 0 00.184-.185V9.006a.185.185 0 00-.184-.186h-2.12a.185.185 0 00-.184.185v1.888c0 .102.082.185.185.185M23.763 9.89c-.065-.051-.672-.51-1.954-.51-.338.001-.676.03-1.01.087-.248-1.7-1.653-2.53-1.716-2.566l-.344-.199-.226.327c-.284.438-.49.922-.612 1.43-.23.97-.09 1.882.403 2.661-.595.332-1.55.413-1.744.42H.751a.751.751 0 00-.75.748 11.376 11.376 0 00.692 4.062c.545 1.428 1.355 2.48 2.41 3.124 1.18.723 3.1 1.137 5.275 1.137.983.003 1.963-.086 2.93-.266a12.248 12.248 0 003.823-1.389c.98-.567 1.86-1.288 2.61-2.136 1.252-1.418 1.998-2.997 2.553-4.4h.221c1.372 0 2.215-.549 2.68-1.009.309-.293.55-.65.707-1.046l.098-.288Z" fill="#2496ED"/></g><g transform="translate(114,473) scale(0.9167)"><path d="M14.23 12.004a2.236 2.236 0 0 1-2.235 2.236 2.236 2.236 0 0 1-2.236-2.236 2.236 2.236 0 0 1 2.235-2.236 2.236 2.236 0 0 1 2.236 2.236zm2.648-10.69c-1.346 0-3.107.96-4.888 2.622-1.78-1.653-3.542-2.602-4.887-2.602-.41 0-.783.093-1.106.278-1.375.793-1.683 3.264-.973 6.365C1.98 8.917 0 10.42 0 12.004c0 1.59 1.99 3.097 5.043 4.03-.704 3.113-.39 5.588.988 6.38.32.187.69.275 1.102.275 1.345 0 3.107-.96 4.888-2.624 1.78 1.654 3.542 2.603 4.887 2.603.41 0 .783-.09 1.106-.275 1.374-.792 1.683-3.263.973-6.365C22.02 15.096 24 13.59 24 12.004c0-1.59-1.99-3.097-5.043-4.032.704-3.11.39-5.587-.988-6.38-.318-.184-.688-.277-1.092-.278zm-.005 1.09v.006c.225 0 .406.044.558.127.666.382.955 1.835.73 3.704-.054.46-.142.945-.25 1.44-.96-.236-2.006-.417-3.107-.534-.66-.905-1.345-1.727-2.035-2.447 1.592-1.48 3.087-2.292 4.105-2.295zm-9.77.02c1.012 0 2.514.808 4.11 2.28-.686.72-1.37 1.537-2.02 2.442-1.107.117-2.154.298-3.113.538-.112-.49-.195-.964-.254-1.42-.23-1.868.054-3.32.714-3.707.19-.09.4-.127.563-.132zm4.882 3.05c.455.468.91.992 1.36 1.564-.44-.02-.89-.034-1.345-.034-.46 0-.915.01-1.36.034.44-.572.895-1.096 1.345-1.565zM12 8.1c.74 0 1.477.034 2.202.093.406.582.802 1.203 1.183 1.86.372.64.71 1.29 1.018 1.946-.308.655-.646 1.31-1.013 1.95-.38.66-.773 1.288-1.18 1.87-.728.063-1.466.098-2.21.098-.74 0-1.477-.035-2.202-.093-.406-.582-.802-1.204-1.183-1.86-.372-.64-.71-1.29-1.018-1.946.303-.657.646-1.313 1.013-1.954.38-.66.773-1.286 1.18-1.868.728-.064 1.466-.098 2.21-.098zm-3.635.254c-.24.377-.48.763-.704 1.16-.225.39-.435.782-.635 1.174-.265-.656-.49-1.31-.676-1.947.64-.15 1.315-.283 2.015-.386zm7.26 0c.695.103 1.365.23 2.006.387-.18.632-.405 1.282-.66 1.933-.2-.39-.41-.783-.64-1.174-.225-.392-.465-.774-.705-1.146zm3.063.675c.484.15.944.317 1.375.498 1.732.74 2.852 1.708 2.852 2.476-.005.768-1.125 1.74-2.857 2.475-.42.18-.88.342-1.355.493-.28-.958-.646-1.956-1.1-2.98.45-1.017.81-2.01 1.085-2.964zm-13.395.004c.278.96.645 1.957 1.1 2.98-.45 1.017-.812 2.01-1.086 2.964-.484-.15-.944-.318-1.37-.5-1.732-.737-2.852-1.706-2.852-2.474 0-.768 1.12-1.742 2.852-2.476.42-.18.88-.342 1.356-.494zm11.678 4.28c.265.657.49 1.312.676 1.948-.64.157-1.316.29-2.016.39.24-.375.48-.762.705-1.158.225-.39.435-.788.636-1.18zm-9.945.02c.2.392.41.783.64 1.175.23.39.465.772.705 1.143-.695-.102-1.365-.23-2.006-.386.18-.63.406-1.282.66-1.933zM17.92 16.32c.112.493.2.968.254 1.423.23 1.868-.054 3.32-.714 3.708-.147.09-.338.128-.563.128-1.012 0-2.514-.807-4.11-2.28.686-.72 1.37-1.536 2.02-2.44 1.107-.118 2.154-.3 3.113-.54zm-11.83.01c.96.234 2.006.415 3.107.532.66.905 1.345 1.727 2.035 2.446-1.595 1.483-3.092 2.295-4.11 2.295-.22-.005-.406-.05-.553-.132-.666-.38-.955-1.834-.73-3.703.054-.46.142-.944.25-1.438zm4.56.64c.44.02.89.034 1.345.034.46 0 .915-.01 1.36-.034-.44.572-.895 1.095-1.345 1.565-.455-.47-.91-.993-1.36-1.565z" fill="#61DAFB"/></g><g transform="translate(544.4,467.6) scale(0.9167)"><path d="M12 0L1.605 6v12L12 24l10.395-6V6L12 0zm6 16.59c0 .705-.646 1.29-1.529 1.29-.631 0-1.351-.255-1.801-.81l-6-7.141v6.66c0 .721-.57 1.29-1.274 1.29H7.32c-.721 0-1.29-.6-1.29-1.29V7.41c0-.705.63-1.29 1.5-1.29.646 0 1.38.255 1.83.81l5.97 7.141V7.41c0-.721.6-1.29 1.29-1.29h.075c.72 0 1.29.6 1.29 1.29v9.18H18z" fill="#009639"/></g><g transform="translate(925.5999999999999,467.4) scale(0.9167)"><path d="M14.23 12.004a2.236 2.236 0 0 1-2.235 2.236 2.236 2.236 0 0 1-2.236-2.236 2.236 2.236 0 0 1 2.235-2.236 2.236 2.236 0 0 1 2.236 2.236zm2.648-10.69c-1.346 0-3.107.96-4.888 2.622-1.78-1.653-3.542-2.602-4.887-2.602-.41 0-.783.093-1.106.278-1.375.793-1.683 3.264-.973 6.365C1.98 8.917 0 10.42 0 12.004c0 1.59 1.99 3.097 5.043 4.03-.704 3.113-.39 5.588.988 6.38.32.187.69.275 1.102.275 1.345 0 3.107-.96 4.888-2.624 1.78 1.654 3.542 2.603 4.887 2.603.41 0 .783-.09 1.106-.275 1.374-.792 1.683-3.263.973-6.365C22.02 15.096 24 13.59 24 12.004c0-1.59-1.99-3.097-5.043-4.032.704-3.11.39-5.587-.988-6.38-.318-.184-.688-.277-1.092-.278zm-.005 1.09v.006c.225 0 .406.044.558.127.666.382.955 1.835.73 3.704-.054.46-.142.945-.25 1.44-.96-.236-2.006-.417-3.107-.534-.66-.905-1.345-1.727-2.035-2.447 1.592-1.48 3.087-2.292 4.105-2.295zm-9.77.02c1.012 0 2.514.808 4.11 2.28-.686.72-1.37 1.537-2.02 2.442-1.107.117-2.154.298-3.113.538-.112-.49-.195-.964-.254-1.42-.23-1.868.054-3.32.714-3.707.19-.09.4-.127.563-.132zm4.882 3.05c.455.468.91.992 1.36 1.564-.44-.02-.89-.034-1.345-.034-.46 0-.915.01-1.36.034.44-.572.895-1.096 1.345-1.565zM12 8.1c.74 0 1.477.034 2.202.093.406.582.802 1.203 1.183 1.86.372.64.71 1.29 1.018 1.946-.308.655-.646 1.31-1.013 1.95-.38.66-.773 1.288-1.18 1.87-.728.063-1.466.098-2.21.098-.74 0-1.477-.035-2.202-.093-.406-.582-.802-1.204-1.183-1.86-.372-.64-.71-1.29-1.018-1.946.303-.657.646-1.313 1.013-1.954.38-.66.773-1.286 1.18-1.868.728-.064 1.466-.098 2.21-.098zm-3.635.254c-.24.377-.48.763-.704 1.16-.225.39-.435.782-.635 1.174-.265-.656-.49-1.31-.676-1.947.64-.15 1.315-.283 2.015-.386zm7.26 0c.695.103 1.365.23 2.006.387-.18.632-.405 1.282-.66 1.933-.2-.39-.41-.783-.64-1.174-.225-.392-.465-.774-.705-1.146zm3.063.675c.484.15.944.317 1.375.498 1.732.74 2.852 1.708 2.852 2.476-.005.768-1.125 1.74-2.857 2.475-.42.18-.88.342-1.355.493-.28-.958-.646-1.956-1.1-2.98.45-1.017.81-2.01 1.085-2.964zm-13.395.004c.278.96.645 1.957 1.1 2.98-.45 1.017-.812 2.01-1.086 2.964-.484-.15-.944-.318-1.37-.5-1.732-.737-2.852-1.706-2.852-2.474 0-.768 1.12-1.742 2.852-2.476.42-.18.88-.342 1.356-.494zm11.678 4.28c.265.657.49 1.312.676 1.948-.64.157-1.316.29-2.016.39.24-.375.48-.762.705-1.158.225-.39.435-.788.636-1.18zm-9.945.02c.2.392.41.783.64 1.175.23.39.465.772.705 1.143-.695-.102-1.365-.23-2.006-.386.18-.63.406-1.282.66-1.933zM17.92 16.32c.112.493.2.968.254 1.423.23 1.868-.054 3.32-.714 3.708-.147.09-.338.128-.563.128-1.012 0-2.514-.807-4.11-2.28.686-.72 1.37-1.536 2.02-2.44 1.107-.118 2.154-.3 3.113-.54zm-11.83.01c.96.234 2.006.415 3.107.532.66.905 1.345 1.727 2.035 2.446-1.595 1.483-3.092 2.295-4.11 2.295-.22-.005-.406-.05-.553-.132-.666-.38-.955-1.834-.73-3.703.054-.46.142-.944.25-1.438zm4.56.64c.44.02.89.034 1.345.034.46 0 .915-.01 1.36-.034-.44.572-.895 1.095-1.345 1.565-.455-.47-.91-.993-1.36-1.565z" fill="#61DAFB"/></g><g transform="translate(910.5999999999999,636.6666666666667) scale(0.9167)"><path d="m23.693 10.7058-4.73-8.1844c-.4094-.7106-1.4166-1.2942-2.2402-1.2942H7.2725c-.819 0-1.8308.5836-2.2402 1.2942L.307 10.7058c-.4095.7106-.4095 1.873 0 2.5837l4.7252 8.189c.4094.7107 1.4166 1.2943 2.2402 1.2943h9.455c.819 0 1.826-.5836 2.2402-1.2942l4.7252-8.189c.4095-.7107.4095-1.8732 0-2.5838zM10.9763 5.7547c0-.5365.4377-.9742.9742-.9742s.9742.4377.9742.9742v5.8217c0 .5366-.4377.9742-.9742.9742s-.9742-.4376-.9742-.9742zm.9742 12.4294c-3.6427 0-6.6077-2.965-6.6077-6.6077.0047-2.0896.993-4.0521 2.6685-5.304a.8657.8657 0 0 1 1.2142.1788.8657.8657 0 0 1-.1788 1.2143c-2.1602 1.6048-2.612 4.6592-1.0072 6.8194 1.6049 2.1603 4.6593 2.612 6.8195 1.0072 1.2378-.9177 1.9673-2.372 1.9673-3.9157a4.8972 4.8972 0 0 0-1.9861-3.925c-.386-.2824-.466-.8284-.1836-1.2143.2824-.386.8283-.466 1.2143-.1835 1.6895 1.2471 2.6826 3.2238 2.6873 5.3228 0 3.6474-2.965 6.6077-6.6077 6.6077z" fill="#6DB33F"/></g><g transform="translate(910.5999999999999,802) scale(0.9167)"><path d="m23.693 10.7058-4.73-8.1844c-.4094-.7106-1.4166-1.2942-2.2402-1.2942H7.2725c-.819 0-1.8308.5836-2.2402 1.2942L.307 10.7058c-.4095.7106-.4095 1.873 0 2.5837l4.7252 8.189c.4094.7107 1.4166 1.2943 2.2402 1.2943h9.455c.819 0 1.826-.5836 2.2402-1.2942l4.7252-8.189c.4095-.7107.4095-1.8732 0-2.5838zM10.9763 5.7547c0-.5365.4377-.9742.9742-.9742s.9742.4377.9742.9742v5.8217c0 .5366-.4377.9742-.9742.9742s-.9742-.4376-.9742-.9742zm.9742 12.4294c-3.6427 0-6.6077-2.965-6.6077-6.6077.0047-2.0896.993-4.0521 2.6685-5.304a.8657.8657 0 0 1 1.2142.1788.8657.8657 0 0 1-.1788 1.2143c-2.1602 1.6048-2.612 4.6592-1.0072 6.8194 1.6049 2.1603 4.6593 2.612 6.8195 1.0072 1.2378-.9177 1.9673-2.372 1.9673-3.9157a4.8972 4.8972 0 0 0-1.9861-3.925c-.386-.2824-.466-.8284-.1836-1.2143.2824-.386.8283-.466 1.2143-.1835 1.6895 1.2471 2.6826 3.2238 2.6873 5.3228 0 3.6474-2.965 6.6077-6.6077 6.6077z" fill="#6DB33F"/></g><g transform="translate(1372.4,990) scale(0.9167)"><path d="M11.998,24c-0.321,0-0.641-0.084-0.922-0.247l-2.936-1.737c-0.438-0.245-0.224-0.332-0.08-0.383 c0.585-0.203,0.703-0.25,1.328-0.604c0.065-0.037,0.151-0.023,0.218,0.017l2.256,1.339c0.082,0.045,0.197,0.045,0.272,0l8.795-5.076 c0.082-0.047,0.134-0.141,0.134-0.238V6.921c0-0.099-0.053-0.192-0.137-0.242l-8.791-5.072c-0.081-0.047-0.189-0.047-0.271,0 L3.075,6.68C2.99,6.729,2.936,6.825,2.936,6.921v10.15c0,0.097,0.054,0.189,0.139,0.235l2.409,1.392 c1.307,0.654,2.108-0.116,2.108-0.89V7.787c0-0.142,0.114-0.253,0.256-0.253h1.115c0.139,0,0.255,0.112,0.255,0.253v10.021 c0,1.745-0.95,2.745-2.604,2.745c-0.508,0-0.909,0-2.026-0.551L2.28,18.675c-0.57-0.329-0.922-0.945-0.922-1.604V6.921 c0-0.659,0.353-1.275,0.922-1.603l8.795-5.082c0.557-0.315,1.296-0.315,1.848,0l8.794,5.082c0.57,0.329,0.924,0.944,0.924,1.603 v10.15c0,0.659-0.354,1.273-0.924,1.604l-8.794,5.078C12.643,23.916,12.324,24,11.998,24z M19.099,13.993 c0-1.9-1.284-2.406-3.987-2.763c-2.731-0.361-3.009-0.548-3.009-1.187c0-0.528,0.235-1.233,2.258-1.233 c1.807,0,2.473,0.389,2.747,1.607c0.024,0.115,0.129,0.199,0.247,0.199h1.141c0.071,0,0.138-0.031,0.186-0.081 c0.048-0.054,0.074-0.123,0.067-0.196c-0.177-2.098-1.571-3.076-4.388-3.076c-2.508,0-4.004,1.058-4.004,2.833 c0,1.925,1.488,2.457,3.895,2.695c2.88,0.282,3.103,0.703,3.103,1.269c0,0.983-0.789,1.402-2.642,1.402 c-2.327,0-2.839-0.584-3.011-1.742c-0.02-0.124-0.126-0.215-0.253-0.215h-1.137c-0.141,0-0.254,0.112-0.254,0.253 c0,1.482,0.806,3.248,4.655,3.248C17.501,17.007,19.099,15.91,19.099,13.993z" fill="#5FA04E"/></g><g><rect x="1745.4" y="544" width="22" height="22" rx="3.96" ry="3.96" fill="#1d6fa5"/><text x="1756.4" y="555" font-family="Helvetica, Arial, sans-serif" font-size="13.6" font-weight="bold" fill="#ffffff" text-anchor="middle" dominant-baseline="central">M</text></g><g transform="translate(1427.4,540) scale(0.9167)"><path d="M22.71 13.145c-1.66 2.092-3.452 4.483-7.038 4.483-3.203 0-4.397-2.825-4.48-5.12.701 1.484 2.073 2.685 4.214 2.63 4.117-.133 6.94-3.852 6.94-7.239 0-4.05-3.022-6.972-8.268-6.972-3.752 0-8.4 1.428-11.455 3.685C2.59 6.937 3.885 9.958 4.35 9.626c2.648-1.904 4.748-3.13 6.784-3.744C8.12 9.244.886 17.05 0 18.425c.1 1.261 1.66 4.648 2.424 4.648.232 0 .431-.133.664-.365a100.49 100.49 0 0 0 5.54-6.765c.222 3.104 1.748 6.898 6.014 6.898 3.819 0 7.604-2.756 9.33-8.965.2-.764-.73-1.361-1.261-.73zm-4.349-5.013c0 1.959-1.926 2.922-3.685 2.922-.941 0-1.664-.247-2.235-.568 1.051-1.592 2.092-3.225 3.21-4.973 1.972.334 2.71 1.43 2.71 2.619z" fill="#FF4438"/></g><g transform="translate(1439.9,663) scale(0.9167)"><path d="M23.5594 14.7228a.5269.5269 0 0 0-.0563-.1191c-.139-.2632-.4768-.3418-1.0074-.2321-1.6533.3411-2.2935.1312-2.5256-.0191 1.342-2.0482 2.445-4.522 3.0411-6.8297.2714-1.0507.7982-3.5237.1222-4.7316a1.5641 1.5641 0 0 0-.1509-.235C21.6931.9086 19.8007.0248 17.5099.0005c-1.4947-.0158-2.7705.3461-3.1161.4794a9.449 9.449 0 0 0-.5159-.0816 8.044 8.044 0 0 0-1.3114-.1278c-1.1822-.0184-2.2038.2642-3.0498.8406-.8573-.3211-4.7888-1.645-7.2219.0788C.9359 2.1526.3086 3.8733.4302 6.3043c.0409.818.5069 3.334 1.2423 5.7436.4598 1.5065.9387 2.7019 1.4334 3.582.553.9942 1.1259 1.5933 1.7143 1.7895.4474.1491 1.1327.1441 1.8581-.7279.8012-.9635 1.5903-1.8258 1.9446-2.2069.4351.2355.9064.3625 1.39.3772a.0569.0569 0 0 0 .0004.0041 11.0312 11.0312 0 0 0-.2472.3054c-.3389.4302-.4094.5197-1.5002.7443-.3102.064-1.1344.2339-1.1464.8115-.0025.1224.0329.2309.0919.3268.2269.4231.9216.6097 1.015.6331 1.3345.3335 2.5044.092 3.3714-.6787-.017 2.231.0775 4.4174.3454 5.0874.2212.5529.7618 1.9045 2.4692 1.9043.2505 0 .5263-.0291.8296-.0941 1.7819-.3821 2.5557-1.1696 2.855-2.9059.1503-.8707.4016-2.8753.5388-4.1012.0169-.0703.0357-.1207.057-.1362.0007-.0005.0697-.0471.4272.0307a.3673.3673 0 0 0 .0443.0068l.2539.0223.0149.001c.8468.0384 1.9114-.1426 2.5312-.4308.6438-.2988 1.8057-1.0323 1.5951-1.6698zM2.371 11.8765c-.7435-2.4358-1.1779-4.8851-1.2123-5.5719-.1086-2.1714.4171-3.6829 1.5623-4.4927 1.8367-1.2986 4.8398-.5408 6.108-.13-.0032.0032-.0066.0061-.0098.0094-2.0238 2.044-1.9758 5.536-1.9708 5.7495-.0002.0823.0066.1989.0162.3593.0348.5873.0996 1.6804-.0735 2.9184-.1609 1.1504.1937 2.2764.9728 3.0892.0806.0841.1648.1631.2518.2374-.3468.3714-1.1004 1.1926-1.9025 2.1576-.5677.6825-.9597.5517-1.0886.5087-.3919-.1307-.813-.5871-1.2381-1.3223-.4796-.839-.9635-2.0317-1.4155-3.5126zm6.0072 5.0871c-.1711-.0428-.3271-.1132-.4322-.1772.0889-.0394.2374-.0902.4833-.1409 1.2833-.2641 1.4815-.4506 1.9143-1.0002.0992-.126.2116-.2687.3673-.4426a.3549.3549 0 0 0 .0737-.1298c.1708-.1513.2724-.1099.4369-.0417.156.0646.3078.26.3695.4752.0291.1016.0619.2945-.0452.4444-.9043 1.2658-2.2216 1.2494-3.1676 1.0128zm2.094-3.988-.0525.141c-.133.3566-.2567.6881-.3334 1.003-.6674-.0021-1.3168-.2872-1.8105-.8024-.6279-.6551-.9131-1.5664-.7825-2.5004.1828-1.3079.1153-2.4468.079-3.0586-.005-.0857-.0095-.1607-.0122-.2199.2957-.2621 1.6659-.9962 2.6429-.7724.4459.1022.7176.4057.8305.928.5846 2.7038.0774 3.8307-.3302 4.7363-.084.1866-.1633.3629-.2311.5454zm7.3637 4.5725c-.0169.1768-.0358.376-.0618.5959l-.146.4383a.3547.3547 0 0 0-.0182.1077c-.0059.4747-.054.6489-.115.8693-.0634.2292-.1353.4891-.1794 1.0575-.11 1.4143-.8782 2.2267-2.4172 2.5565-1.5155.3251-1.7843-.4968-2.0212-1.2217a6.5824 6.5824 0 0 0-.0769-.2266c-.2154-.5858-.1911-1.4119-.1574-2.5551.0165-.5612-.0249-1.9013-.3302-2.6462.0044-.2932.0106-.5909.019-.8918a.3529.3529 0 0 0-.0153-.1126 1.4927 1.4927 0 0 0-.0439-.208c-.1226-.4283-.4213-.7866-.7797-.9351-.1424-.059-.4038-.1672-.7178-.0869.067-.276.1831-.5875.309-.9249l.0529-.142c.0595-.16.134-.3257.213-.5012.4265-.9476 1.0106-2.2453.3766-5.1772-.2374-1.0981-1.0304-1.6343-2.2324-1.5098-.7207.0746-1.3799.3654-1.7088.5321a5.6716 5.6716 0 0 0-.1958.1041c.0918-1.1064.4386-3.1741 1.7357-4.4823a4.0306 4.0306 0 0 1 .3033-.276.3532.3532 0 0 0 .1447-.0644c.7524-.5706 1.6945-.8506 2.802-.8325.4091.0067.8017.0339 1.1742.081 1.939.3544 3.2439 1.4468 4.0359 2.3827.8143.9623 1.2552 1.9315 1.4312 2.4543-1.3232-.1346-2.2234.1268-2.6797.779-.9926 1.4189.543 4.1729 1.2811 5.4964.1353.2426.2522.4522.2889.5413.2403.5825.5515.9713.7787 1.2552.0696.087.1372.1714.1885.245-.4008.1155-1.1208.3825-1.0552 1.717-.0123.1563-.0423.4469-.0834.8148-.0461.2077-.0702.4603-.0994.7662zm.8905-1.6211c-.0405-.8316.2691-.9185.5967-1.0105a2.8566 2.8566 0 0 0 .135-.0406 1.202 1.202 0 0 0 .1342.103c.5703.3765 1.5823.4213 3.0068.1344-.2016.1769-.5189.3994-.9533.6011-.4098.1903-1.0957.333-1.7473.3636-.7197.0336-1.0859-.0807-1.1721-.151zm.5695-9.2712c-.0059.3508-.0542.6692-.1054 1.0017-.055.3576-.112.7274-.1264 1.1762-.0142.4368.0404.8909.0932 1.3301.1066.887.216 1.8003-.2075 2.7014a3.5272 3.5272 0 0 1-.1876-.3856c-.0527-.1276-.1669-.3326-.3251-.6162-.6156-1.1041-2.0574-3.6896-1.3193-4.7446.3795-.5427 1.3408-.5661 2.1781-.463zm.2284 7.0137a12.3762 12.3762 0 0 0-.0853-.1074l-.0355-.0444c.7262-1.1995.5842-2.3862.4578-3.4385-.0519-.4318-.1009-.8396-.0885-1.2226.0129-.4061.0666-.7543.1185-1.0911.0639-.415.1288-.8443.1109-1.3505.0134-.0531.0188-.1158.0118-.1902-.0457-.4855-.5999-1.938-1.7294-3.253-.6076-.7073-1.4896-1.4972-2.6889-2.0395.5251-.1066 1.2328-.2035 2.0244-.1859 2.0515.0456 3.6746.8135 4.8242 2.2824a.908.908 0 0 1 .0667.1002c.7231 1.3556-.2762 6.2751-2.9867 10.5405zm-8.8166-6.1162c-.025.1794-.3089.4225-.6211.4225a.5821.5821 0 0 1-.0809-.0056c-.1873-.026-.3765-.144-.5059-.3156-.0458-.0605-.1203-.178-.1055-.2844.0055-.0401.0261-.0985.0925-.1488.1182-.0894.3518-.1226.6096-.0867.3163.0441.6426.1938.6113.4186zm7.9305-.4114c.0111.0792-.049.201-.1531.3102-.0683.0717-.212.1961-.4079.2232a.5456.5456 0 0 1-.075.0052c-.2935 0-.5414-.2344-.5607-.3717-.024-.1765.2641-.3106.5611-.352.297-.0414.6111.0088.6356.1851z" fill="#4169E1"/></g><g transform="translate(1376.4,782) scale(0.9167)"><path d="M9.71 2.136a1.43 1.43 0 0 0-2.047 0h-.007a1.48 1.48 0 0 0-.421 1.042c0 .41.161.777.422 1.039l.007.007c.257.264.616.426 1.019.426.404 0 .766-.162 1.027-.426l.003-.007c.261-.262.421-.629.421-1.039 0-.408-.159-.777-.421-1.042H9.71zM8.683 22.295c.404 0 .766-.167 1.027-.429l.003-.008c.261-.261.421-.631.421-1.036 0-.41-.159-.778-.421-1.044H9.71a1.42 1.42 0 0 0-1.027-.432 1.4 1.4 0 0 0-1.02.432h-.007c-.26.266-.422.634-.422 1.044 0 .406.161.775.422 1.036l.007.008c.258.262.617.429 1.02.429zm7.89-4.462c.359-.096.683-.33.882-.684l.027-.052a1.47 1.47 0 0 0 .114-1.067 1.454 1.454 0 0 0-.675-.896l-.021-.014a1.425 1.425 0 0 0-1.078-.132c-.36.091-.684.335-.881.686-.2.349-.241.75-.146 1.119.099.363.33.691.675.896h.002c.346.203.737.239 1.101.144zm-6.405-7.342a2.083 2.083 0 0 0-1.485-.627c-.58 0-1.103.242-1.482.627-.378.385-.612.916-.612 1.507s.233 1.124.612 1.514a2.08 2.08 0 0 0 2.967 0c.379-.39.612-.923.612-1.514s-.233-1.122-.612-1.507zm-.835-2.51c.843.141 1.6.552 2.178 1.144h.004c.092.093.182.196.265.299l1.446-.851a3.176 3.176 0 0 1-.047-1.808 3.149 3.149 0 0 1 1.456-1.926l.025-.016a3.062 3.062 0 0 1 2.345-.306c.77.21 1.465.721 1.898 1.482v.002c.431.757.518 1.626.313 2.408a3.145 3.145 0 0 1-1.456 1.928l-.198.118h-.02a3.095 3.095 0 0 1-2.154.201 3.127 3.127 0 0 1-1.514-.944l-1.444.848a4.162 4.162 0 0 1 0 2.879l1.444.846c.413-.47.939-.789 1.514-.944a3.041 3.041 0 0 1 2.371.319l.048.023v.002a3.17 3.17 0 0 1 1.408 1.906 3.215 3.215 0 0 1-.313 2.405l-.026.053-.003-.005a3.147 3.147 0 0 1-1.867 1.436 3.096 3.096 0 0 1-2.371-.318v-.006a3.156 3.156 0 0 1-1.456-1.927 3.175 3.175 0 0 1 .047-1.805l-1.446-.848a3.905 3.905 0 0 1-.265.294l-.004.005a3.938 3.938 0 0 1-2.178 1.138v1.699a3.09 3.09 0 0 1 1.56.862l.002.004c.565.572.914 1.368.914 2.243 0 .873-.35 1.664-.914 2.239l-.002.009a3.1 3.1 0 0 1-2.21.931 3.1 3.1 0 0 1-2.206-.93h-.002v-.009a3.186 3.186 0 0 1-.916-2.239c0-.875.35-1.672.916-2.243v-.004h.002a3.1 3.1 0 0 1 1.558-.862v-1.699a3.926 3.926 0 0 1-2.176-1.138l-.006-.005a4.098 4.098 0 0 1-1.173-2.874c0-1.122.452-2.136 1.173-2.872h.006a3.947 3.947 0 0 1 2.176-1.144V6.289a3.137 3.137 0 0 1-1.558-.864h-.002v-.004a3.192 3.192 0 0 1-.916-2.243c0-.871.35-1.669.916-2.243l.002-.002A3.084 3.084 0 0 1 8.683 0c.861 0 1.641.355 2.21.932v.002h.002c.565.574.914 1.372.914 2.243 0 .876-.35 1.667-.914 2.243l-.002.005a3.142 3.142 0 0 1-1.56.864v1.692zm8.121-1.129l-.012-.019a1.452 1.452 0 0 0-.87-.668 1.43 1.43 0 0 0-1.103.146h.002c-.347.2-.58.529-.677.896-.095.365-.054.768.146 1.119l.007.009c.2.347.519.579.874.673.357.103.755.059 1.098-.144l.019-.009a1.47 1.47 0 0 0 .657-.885 1.493 1.493 0 0 0-.141-1.118" fill="#231F20"/></g><g transform="translate(1375.7333333333333,894) scale(0.9167)"><path d="M12.6974 13.1173c-1.0224 1.0224-1.0224 2.68 0 3.7024 1.0224 1.0224 2.68 1.0224 3.7024 0 1.0224-1.0223 1.0224-2.68 0-3.7024-1.0223-1.0223-2.68-1.0223-3.7024 0zm2.7677 2.7701c-.5063.5063-1.3267.5063-1.833 0s-.5063-1.3266 0-1.833c.5063-.5062 1.3267-.5062 1.833 0 .5063.504.5063 1.3267 0 1.833zM16.356.2355l-1.6041 1.6042c-.314.314-.314.83 0 1.144L21.015 9.247c.314.314.83.314 1.144 0l1.6042-1.6041c.314-.314.314-.83 0-1.144L17.4976.2354c-.314-.314-.8276-.314-1.1416 0zM5.1173 20.734c.2848-.2848.2848-.7497 0-1.0345l-.8155-.8155c-.2848-.2848-.7497-.2848-1.0345 0l-1.6845 1.6845-.0024.0024-.4625-.4625c-.2556-.2556-.6718-.2556-.925 0-.2556.2556-.2556.6718 0 .925l2.775 2.775c.2556.2556.6718.2556.925 0 .2532-.2556.2556-.6718 0-.925l-.4625-.4625.0024-.0024zm8.4856-15.893-3.5637 3.5637c-.3164.3164-.3164.8374 0 1.1538l2.2006 2.2005c1.5554-1.1197 3.7365-.981 5.1361.4187l1.7819-1.7818c.3164-.3165.3164-.8374 0-1.1538l-4.401-4.401c-.3165-.319-.8374-.319-1.1539 0zm-2.2881 7.8455-1.2999-1.2999c-.3043-.3043-.8033-.3043-1.1076 0l-4.5836 4.586c-.3042.3043-.3042.8033 0 1.1076l2.5973 2.5973c.3043.3043.8033.3043 1.1076 0l2.9478-2.9527c-.6231-1.2877-.5112-2.8431.3384-4.0383z" fill="#425CC7"/></g><g><rect x="1760.4" y="805.3333333333334" width="22" height="22" rx="3.96" ry="3.96" fill="#005EB8"/><text x="1771.4" y="816.3333333333334" font-family="Helvetica, Arial, sans-serif" font-size="13.6" font-weight="bold" fill="#ffffff" text-anchor="middle" dominant-baseline="central">D</text></g><g transform="translate(2136.9,826.8333333333334) scale(0.9167)"><path d="M23.1515 8.8125a.8484.8484 0 0 0-.8484.8485c0 6.982-5.6601 12.6421-12.6421 12.6421a.8485.8485 0 0 0 0 1.6969C17.5802 24 24 17.5802 24 9.661a.8485.8485 0 0 0-.8485-.8485Zm-5.121 5.4375c.816-1.3311 1.6051-3.1058 1.4498-5.5905-.3216-5.1468-4.9832-9.0512-9.3851-8.6281C8.372.1971 6.6025 1.6017 6.7598 4.1177c.0683 1.0934.6034 1.7386 1.473 2.2348.8279.4722 1.8914.7713 3.097 1.1104 1.4563.4096 3.1455.8697 4.4438 1.8265 1.5561 1.1467 2.6198 2.4759 2.2569 4.9606Zm-16.561-9C.6535 6.581-.1355 8.3558.0197 10.8405c.3216 5.1468 4.9832 9.0512 9.385 8.6281 1.7233-.1657 3.4927-1.5703 3.3355-4.0863-.0683-1.0934-.6034-1.7386-1.4731-2.2348-.8278-.4722-1.8913-.7713-3.0969-1.1104-1.4563-.4096-3.1455-.8697-4.4438-1.8265-1.5561-1.1467-2.6198-2.476-2.257-4.9606Z" fill="#005EB8"/></g><g transform="translate(1745.4,970) scale(0.9167)"><path d="M23.1515 8.8125a.8484.8484 0 0 0-.8484.8485c0 6.982-5.6601 12.6421-12.6421 12.6421a.8485.8485 0 0 0 0 1.6969C17.5802 24 24 17.5802 24 9.661a.8485.8485 0 0 0-.8485-.8485Zm-5.121 5.4375c.816-1.3311 1.6051-3.1058 1.4498-5.5905-.3216-5.1468-4.9832-9.0512-9.3851-8.6281C8.372.1971 6.6025 1.6017 6.7598 4.1177c.0683 1.0934.6034 1.7386 1.473 2.2348.8279.4722 1.8914.7713 3.097 1.1104 1.4563.4096 3.1455.8697 4.4438 1.8265 1.5561 1.1467 2.6198 2.4759 2.2569 4.9606Zm-16.561-9C.6535 6.581-.1355 8.3558.0197 10.8405c.3216 5.1468 4.9832 9.0512 9.385 8.6281 1.7233-.1657 3.4927-1.5703 3.3355-4.0863-.0683-1.0934-.6034-1.7386-1.4731-2.2348-.8278-.4722-1.8913-.7713-3.0969-1.1104-1.4563-.4096-3.1455-.8697-4.4438-1.8265-1.5561-1.1467-2.6198-2.476-2.257-4.9606Z" fill="#005EB8"/></g><g transform="translate(1376.6857142857143,428) scale(0.9167)"><path d="m18.742 1.182-12.493.002C4.155 4.784 2.079 8.393 0 12.002c2.071 3.612 4.162 7.214 6.252 10.816l12.49-.004 3.089-5.404h2.158v-.002H24L23.996 6.59h-2.168zM8.327 4.792h2.081l1.04 1.8-3.12 5.413 3.117 5.403-1.035 1.81H8.327a2047.566 2047.566 0 0 0-4.168-7.204C5.547 9.606 6.937 7.2 8.327 4.792Zm6.241 0 2.086.003c1.393 2.405 2.78 4.813 4.166 7.222l-4.167 7.2h-2.08c-.382-.562-1.038-1.808-1.038-1.808l3.123-5.405-3.124-5.413z" fill="#4D4D4D"/></g><g transform="translate(1812.9,435) scale(0.9167)"><path d="M23.5594 14.7228a.5269.5269 0 0 0-.0563-.1191c-.139-.2632-.4768-.3418-1.0074-.2321-1.6533.3411-2.2935.1312-2.5256-.0191 1.342-2.0482 2.445-4.522 3.0411-6.8297.2714-1.0507.7982-3.5237.1222-4.7316a1.5641 1.5641 0 0 0-.1509-.235C21.6931.9086 19.8007.0248 17.5099.0005c-1.4947-.0158-2.7705.3461-3.1161.4794a9.449 9.449 0 0 0-.5159-.0816 8.044 8.044 0 0 0-1.3114-.1278c-1.1822-.0184-2.2038.2642-3.0498.8406-.8573-.3211-4.7888-1.645-7.2219.0788C.9359 2.1526.3086 3.8733.4302 6.3043c.0409.818.5069 3.334 1.2423 5.7436.4598 1.5065.9387 2.7019 1.4334 3.582.553.9942 1.1259 1.5933 1.7143 1.7895.4474.1491 1.1327.1441 1.8581-.7279.8012-.9635 1.5903-1.8258 1.9446-2.2069.4351.2355.9064.3625 1.39.3772a.0569.0569 0 0 0 .0004.0041 11.0312 11.0312 0 0 0-.2472.3054c-.3389.4302-.4094.5197-1.5002.7443-.3102.064-1.1344.2339-1.1464.8115-.0025.1224.0329.2309.0919.3268.2269.4231.9216.6097 1.015.6331 1.3345.3335 2.5044.092 3.3714-.6787-.017 2.231.0775 4.4174.3454 5.0874.2212.5529.7618 1.9045 2.4692 1.9043.2505 0 .5263-.0291.8296-.0941 1.7819-.3821 2.5557-1.1696 2.855-2.9059.1503-.8707.4016-2.8753.5388-4.1012.0169-.0703.0357-.1207.057-.1362.0007-.0005.0697-.0471.4272.0307a.3673.3673 0 0 0 .0443.0068l.2539.0223.0149.001c.8468.0384 1.9114-.1426 2.5312-.4308.6438-.2988 1.8057-1.0323 1.5951-1.6698zM2.371 11.8765c-.7435-2.4358-1.1779-4.8851-1.2123-5.5719-.1086-2.1714.4171-3.6829 1.5623-4.4927 1.8367-1.2986 4.8398-.5408 6.108-.13-.0032.0032-.0066.0061-.0098.0094-2.0238 2.044-1.9758 5.536-1.9708 5.7495-.0002.0823.0066.1989.0162.3593.0348.5873.0996 1.6804-.0735 2.9184-.1609 1.1504.1937 2.2764.9728 3.0892.0806.0841.1648.1631.2518.2374-.3468.3714-1.1004 1.1926-1.9025 2.1576-.5677.6825-.9597.5517-1.0886.5087-.3919-.1307-.813-.5871-1.2381-1.3223-.4796-.839-.9635-2.0317-1.4155-3.5126zm6.0072 5.0871c-.1711-.0428-.3271-.1132-.4322-.1772.0889-.0394.2374-.0902.4833-.1409 1.2833-.2641 1.4815-.4506 1.9143-1.0002.0992-.126.2116-.2687.3673-.4426a.3549.3549 0 0 0 .0737-.1298c.1708-.1513.2724-.1099.4369-.0417.156.0646.3078.26.3695.4752.0291.1016.0619.2945-.0452.4444-.9043 1.2658-2.2216 1.2494-3.1676 1.0128zm2.094-3.988-.0525.141c-.133.3566-.2567.6881-.3334 1.003-.6674-.0021-1.3168-.2872-1.8105-.8024-.6279-.6551-.9131-1.5664-.7825-2.5004.1828-1.3079.1153-2.4468.079-3.0586-.005-.0857-.0095-.1607-.0122-.2199.2957-.2621 1.6659-.9962 2.6429-.7724.4459.1022.7176.4057.8305.928.5846 2.7038.0774 3.8307-.3302 4.7363-.084.1866-.1633.3629-.2311.5454zm7.3637 4.5725c-.0169.1768-.0358.376-.0618.5959l-.146.4383a.3547.3547 0 0 0-.0182.1077c-.0059.4747-.054.6489-.115.8693-.0634.2292-.1353.4891-.1794 1.0575-.11 1.4143-.8782 2.2267-2.4172 2.5565-1.5155.3251-1.7843-.4968-2.0212-1.2217a6.5824 6.5824 0 0 0-.0769-.2266c-.2154-.5858-.1911-1.4119-.1574-2.5551.0165-.5612-.0249-1.9013-.3302-2.6462.0044-.2932.0106-.5909.019-.8918a.3529.3529 0 0 0-.0153-.1126 1.4927 1.4927 0 0 0-.0439-.208c-.1226-.4283-.4213-.7866-.7797-.9351-.1424-.059-.4038-.1672-.7178-.0869.067-.276.1831-.5875.309-.9249l.0529-.142c.0595-.16.134-.3257.213-.5012.4265-.9476 1.0106-2.2453.3766-5.1772-.2374-1.0981-1.0304-1.6343-2.2324-1.5098-.7207.0746-1.3799.3654-1.7088.5321a5.6716 5.6716 0 0 0-.1958.1041c.0918-1.1064.4386-3.1741 1.7357-4.4823a4.0306 4.0306 0 0 1 .3033-.276.3532.3532 0 0 0 .1447-.0644c.7524-.5706 1.6945-.8506 2.802-.8325.4091.0067.8017.0339 1.1742.081 1.939.3544 3.2439 1.4468 4.0359 2.3827.8143.9623 1.2552 1.9315 1.4312 2.4543-1.3232-.1346-2.2234.1268-2.6797.779-.9926 1.4189.543 4.1729 1.2811 5.4964.1353.2426.2522.4522.2889.5413.2403.5825.5515.9713.7787 1.2552.0696.087.1372.1714.1885.245-.4008.1155-1.1208.3825-1.0552 1.717-.0123.1563-.0423.4469-.0834.8148-.0461.2077-.0702.4603-.0994.7662zm.8905-1.6211c-.0405-.8316.2691-.9185.5967-1.0105a2.8566 2.8566 0 0 0 .135-.0406 1.202 1.202 0 0 0 .1342.103c.5703.3765 1.5823.4213 3.0068.1344-.2016.1769-.5189.3994-.9533.6011-.4098.1903-1.0957.333-1.7473.3636-.7197.0336-1.0859-.0807-1.1721-.151zm.5695-9.2712c-.0059.3508-.0542.6692-.1054 1.0017-.055.3576-.112.7274-.1264 1.1762-.0142.4368.0404.8909.0932 1.3301.1066.887.216 1.8003-.2075 2.7014a3.5272 3.5272 0 0 1-.1876-.3856c-.0527-.1276-.1669-.3326-.3251-.6162-.6156-1.1041-2.0574-3.6896-1.3193-4.7446.3795-.5427 1.3408-.5661 2.1781-.463zm.2284 7.0137a12.3762 12.3762 0 0 0-.0853-.1074l-.0355-.0444c.7262-1.1995.5842-2.3862.4578-3.4385-.0519-.4318-.1009-.8396-.0885-1.2226.0129-.4061.0666-.7543.1185-1.0911.0639-.415.1288-.8443.1109-1.3505.0134-.0531.0188-.1158.0118-.1902-.0457-.4855-.5999-1.938-1.7294-3.253-.6076-.7073-1.4896-1.4972-2.6889-2.0395.5251-.1066 1.2328-.2035 2.0244-.1859 2.0515.0456 3.6746.8135 4.8242 2.2824a.908.908 0 0 1 .0667.1002c.7231 1.3556-.2762 6.2751-2.9867 10.5405zm-8.8166-6.1162c-.025.1794-.3089.4225-.6211.4225a.5821.5821 0 0 1-.0809-.0056c-.1873-.026-.3765-.144-.5059-.3156-.0458-.0605-.1203-.178-.1055-.2844.0055-.0401.0261-.0985.0925-.1488.1182-.0894.3518-.1226.6096-.0867.3163.0441.6426.1938.6113.4186zm7.9305-.4114c.0111.0792-.049.201-.1531.3102-.0683.0717-.212.1961-.4079.2232a.5456.5456 0 0 1-.075.0052c-.2935 0-.5414-.2344-.5607-.3717-.024-.1765.2641-.3106.5611-.352.297-.0414.6111.0088.6356.1851z" fill="#4169E1"/></g><g><rect x="1821.4" y="307" width="22" height="22" rx="3.96" ry="3.96" fill="#64748b"/><text x="1832.4" y="318" font-family="Helvetica, Arial, sans-serif" font-size="13.6" font-weight="bold" fill="#ffffff" text-anchor="middle" dominant-baseline="central">L</text></g><g><rect x="1382.4" y="305" width="22" height="22" rx="3.96" ry="3.96" fill="#64748b"/><text x="1393.4" y="316" font-family="Helvetica, Arial, sans-serif" font-size="13.6" font-weight="bold" fill="#ffffff" text-anchor="middle" dominant-baseline="central">P</text></g></svg>