<svg xmlns="http://www.w3.org/2000/svg" width="32" height="32" viewBox="0 0 32 32">
  <defs>
    <linearGradient id="bg" x1="0%" y1="0%" x2="100%" y2="100%">
      <stop offset="0%" stop-color="#0a0a18"/>
      <stop offset="100%" stop-color="#060610"/>
    </linearGradient>
    <linearGradient id="fill" x1="0%" y1="0%" x2="0%" y2="100%">
      <stop offset="0%" stop-color="#3b82f6" stop-opacity="0.15"/>
      <stop offset="100%" stop-color="#3b82f6" stop-opacity="0"/>
    </linearGradient>
  </defs>
  <rect width="32" height="32" fill="url(#bg)"/>
  <rect x="0.5" y="0.5" width="31" height="31" fill="none" stroke="#1e3a5f" stroke-width="0.7"/>
  <line x1="4" y1="8" x2="4" y2="27" stroke="#1e3a5f" stroke-width="0.4"/>
  <line x1="4" y1="27" x2="28" y2="27" stroke="#1e3a5f" stroke-width="0.4"/>
  <line x1="4" y1="20" x2="28" y2="20" stroke="#1e3a5f" stroke-width="0.2" stroke-dasharray="1,2"/>
  <line x1="4" y1="14" x2="28" y2="14" stroke="#1e3a5f" stroke-width="0.2" stroke-dasharray="1,2"/>
  <line x1="4" y1="8" x2="28" y2="8" stroke="#1e3a5f" stroke-width="0.2" stroke-dasharray="1,2"/>
  <path d="M5,25 L8,23 L11,24 L14,17 L17,19 L20,13 L23,15 L27,7 M27,7 L25.2,8.3 M27,7 L27,9.2" fill="none" stroke="#a5d0fe" stroke-width="0.675" stroke-linecap="round" stroke-linejoin="miter"/>
  <polygon points="5,25 8,23 11,24 14,17 17,19 20,13 23,15 27,7 27,27 5,27" fill="url(#fill)"/>
  <line x1="9" y1="21" x2="9" y2="26" stroke="#ef4444" stroke-width="0.4"/>
  <rect x="8.2" y="22" width="1.6" height="2.5" fill="#ef4444"/>
  <line x1="16" y1="15" x2="16" y2="21" stroke="#22c55e" stroke-width="0.4"/>
  <rect x="15.2" y="16" width="1.6" height="3" fill="#22c55e"/>
  <line x1="23" y1="11" x2="23" y2="17" stroke="#22c55e" stroke-width="0.4"/>
  <rect x="22.2" y="12" width="1.6" height="3" fill="#22c55e"/>
</svg>
