<svg xmlns="http://www.w3.org/2000/svg" viewBox="0 0 32 32" preserveAspectRatio="xMidYMid meet">
  <defs>
    <linearGradient id="bg" x1="0%" y1="0%" x2="100%" y2="100%">
      <stop offset="0%" stop-color="#0a0a18"/>
      <stop offset="50%" stop-color="#0f0f1e"/>
      <stop offset="100%" stop-color="#060610"/>
    </linearGradient>
    <linearGradient id="lineGlow" x1="0%" y1="0%" x2="100%" y2="100%">
      <stop offset="0%" stop-color="#a78bfa"/>
      <stop offset="100%" stop-color="#6366f1"/>
    </linearGradient>
    <linearGradient id="fill" x1="0%" y1="0%" x2="0%" y2="100%">
      <stop offset="0%" stop-color="#6366f1" stop-opacity="0.35"/>
      <stop offset="100%" stop-color="#6366f1" stop-opacity="0"/>
    </linearGradient>
    <filter id="lineBlur" x="-20%" y="-20%" width="140%" height="140%">
      <feGaussianBlur stdDeviation="0.6"/>
    </filter>
  </defs>
  <rect width="32" height="32" rx="6" fill="url(#bg)"/>
  <line x1="2" y1="22" x2="30" y2="22" stroke="#1e1e3a" stroke-width="0.3" stroke-dasharray="1,2"/>
  <line x1="2" y1="15" x2="30" y2="15" stroke="#1e1e3a" stroke-width="0.3" stroke-dasharray="1,2"/>
  <line x1="2" y1="8" x2="30" y2="8" stroke="#1e1e3a" stroke-width="0.3" stroke-dasharray="1,2"/>
  <polygon points="2,26 6,23 10,24 14,16 18,18 22,11 26,13 30,5 30,28 2,28" fill="url(#fill)"/>
  <path d="M2,26 L6,23 L10,24 L14,16 L18,18 L22,11 L26,13 L30,5" fill="none" stroke="url(#lineGlow)" stroke-width="1.8" stroke-linecap="round" stroke-linejoin="round" filter="url(#lineBlur)" opacity="0.5"/>
  <path d="M2,26 L6,23 L10,24 L14,16 L18,18 L22,11 L26,13 L30,5" fill="none" stroke="url(#lineGlow)" stroke-width="1.1" stroke-linecap="round" stroke-linejoin="round"/>
  <line x1="7" y1="21" x2="7" y2="27" stroke="#ef4444" stroke-width="0.5"/>
  <rect x="6" y="22" width="2" height="3" rx="0.3" fill="#ef4444"/>
  <line x1="15" y1="14" x2="15" y2="20" stroke="#10b981" stroke-width="0.5"/>
  <rect x="14" y="15" width="2" height="4" rx="0.3" fill="#10b981"/>
  <line x1="23" y1="9" x2="23" y2="17" stroke="#10b981" stroke-width="0.5"/>
  <rect x="22" y="10" width="2" height="4.5" rx="0.3" fill="#10b981"/>
  <circle cx="30" cy="5" r="1.2" fill="#a78bfa"/>
  <circle cx="30" cy="5" r="0.55" fill="#ffffff"/>
</svg>
